<svg width="50" height="50" viewBox="0 0 50 50" version="1.1" xmlns="http://www.w3.org/2000/svg" xmlns:xlink="http://www.w3.org/1999/xlink">
<title>Group</title>
<desc>Created using Figma</desc>
<g id="Canvas" transform="translate(-1076 506)">
<g id="Group">
<g id="Ellipse">
<mask id="mask0_outline_ins">
<use xlink:href="#path0_fill" fill="white" transform="translate(1076 -506)"/>
</mask>
<g mask="url(#mask0_outline_ins)">
<use xlink:href="#path1_stroke_2x" transform="translate(1076 -506)" fill="#FF4F4F"/>
</g>
</g>
<g id="&#239;&#128;&#138;">
<use xlink:href="#path2_fill" transform="translate(1089 -493)" fill="#C14343"/>
</g>
</g>
</g>
<defs>
<path id="path0_fill" d="M 50 25C 50 38.8071 38.8071 50 25 50C 11.1929 50 0 38.8071 0 25C 0 11.1929 11.1929 0 25 0C 38.8071 0 50 11.1929 50 25Z"/>
<path id="path1_stroke_2x" d="M 49 25C 49 38.2548 38.2548 49 25 49L 25 51C 39.3594 51 51 39.3594 51 25L 49 25ZM 25 49C 11.7452 49 1 38.2548 1 25L -1 25C -1 39.3594 10.6406 51 25 51L 25 49ZM 1 25C 1 11.7452 11.7452 1 25 1L 25 -1C 10.6406 -1 -1 10.6406 -1 25L 1 25ZM 25 1C 38.2548 1 49 11.7452 49 25L 51 25C 51 10.6406 39.3594 -1 25 -1L 25 1Z"/>
<path id="path2_fill" d="M 6.85714 17.1429C 6.85714 16.433 6.28125 15.8571 5.57143 15.8571L 1.28571 15.8571C 0.575893 15.8571 0 16.433 0 17.1429L 0 19.7143C 0 20.4241 0.575893 21 1.28571 21L 5.57143 21C 6.28125 21 6.85714 20.4241 6.85714 19.7143L 6.85714 17.1429ZM 6.85714 10.2857C 6.85714 9.57589 6.28125 9 5.57143 9L 1.28571 9C 0.575893 9 0 9.57589 0 10.2857L 0 12.8571C 0 13.567 0.575893 14.1429 1.28571 14.1429L 5.57143 14.1429C 6.28125 14.1429 6.85714 13.567 6.85714 12.8571L 6.85714 10.2857ZM 15.4286 17.1429C 15.4286 16.433 14.8527 15.8571 14.1429 15.8571L 9.85714 15.8571C 9.14732 15.8571 8.57143 16.433 8.57143 17.1429L 8.57143 19.7143C 8.57143 20.4241 9.14732 21 9.85714 21L 14.1429 21C 14.8527 21 15.4286 20.4241 15.4286 19.7143L 15.4286 17.1429ZM 6.85714 3.42857C 6.85714 2.71875 6.28125 2.14286 5.57143 2.14286L 1.28571 2.14286C 0.575893 2.14286 0 2.71875 0 3.42857L 0 6C 0 6.70982 0.575893 7.28571 1.28571 7.28571L 5.57143 7.28571C 6.28125 7.28571 6.85714 6.70982 6.85714 6L 6.85714 3.42857ZM 15.4286 10.2857C 15.4286 9.57589 14.8527 9 14.1429 9L 9.85714 9C 9.14732 9 8.57143 9.57589 8.57143 10.2857L 8.57143 12.8571C 8.57143 13.567 9.14732 14.1429 9.85714 14.1429L 14.1429 14.1429C 14.8527 14.1429 15.4286 13.567 15.4286 12.8571L 15.4286 10.2857ZM 24 17.1429C 24 16.433 23.4241 15.8571 22.7143 15.8571L 18.4286 15.8571C 17.7188 15.8571 17.1429 16.433 17.1429 17.1429L 17.1429 19.7143C 17.1429 20.4241 17.7188 21 18.4286 21L 22.7143 21C 23.4241 21 24 20.4241 24 19.7143L 24 17.1429ZM 15.4286 3.42857C 15.4286 2.71875 14.8527 2.14286 14.1429 2.14286L 9.85714 2.14286C 9.14732 2.14286 8.57143 2.71875 8.57143 3.42857L 8.57143 6C 8.57143 6.70982 9.14732 7.28571 9.85714 7.28571L 14.1429 7.28571C 14.8527 7.28571 15.4286 6.70982 15.4286 6L 15.4286 3.42857ZM 24 10.2857C 24 9.57589 23.4241 9 22.7143 9L 18.4286 9C 17.7188 9 17.1429 9.57589 17.1429 10.2857L 17.1429 12.8571C 17.1429 13.567 17.7188 14.1429 18.4286 14.1429L 22.7143 14.1429C 23.4241 14.1429 24 13.567 24 12.8571L 24 10.2857ZM 24 3.42857C 24 2.71875 23.4241 2.14286 22.7143 2.14286L 18.4286 2.14286C 17.7188 2.14286 17.1429 2.71875 17.1429 3.42857L 17.1429 6C 17.1429 6.70982 17.7188 7.28571 18.4286 7.28571L 22.7143 7.28571C 23.4241 7.28571 24 6.70982 24 6L 24 3.42857Z"/>
</defs>
</svg>
